<svg width="1197" height="651" xmlns="http://www.w3.org/2000/svg"><path d="M-81-50l-42 371 39-301z" fill="#da4a3f" stroke="#da4a3f"/><path d="M-81-50l-3 70 99 30z" fill="#da051c" stroke="#da051c"/><path d="M-81-50L15 50l48-87z" fill="#dd001e" stroke="#dd001e"/><path d="M-81-50L63-37l174-43z" fill="#e1191f" stroke="#e1191f"/><path d="M-81-50l318-30 217-27z" fill="#ec463a" stroke="#ec463a"/><path d="M63-37L15 50l147-27z" fill="#e52539" stroke="#e52539"/><path d="M63-37l99 60 75-103z" fill="#ea3535" stroke="#ea3535"/><path d="M237-80L162 23l193-7z" fill="#f25551" stroke="#f25551"/><path d="M237-80l118 96-3-78z" fill="#f16054" stroke="#f16054"/><path d="M237-80l115 18 102-45z" fill="#ef655c" stroke="#ef655c"/><path d="M352-62l3 78 142 3z" fill="#f36e78" stroke="#f36e78"/><path d="M352-62l145 81-43-126z" fill="#f17471" stroke="#f17471"/><path d="M454-107l43 126 129-56z" fill="#e8777a" stroke="#e8777a"/><path d="M454-107l172 70 137-60z" fill="#d36e75" stroke="#d36e75"/><path d="M626-37L497 19l131 91z" fill="#e08897" stroke="#e08897"/><path d="M626-37l2 147 148-64z" fill="#cd8596" stroke="#cd8596"/><path d="M626-37l150 83-13-143z" fill="#bf6275" stroke="#bf6275"/><path d="M763-97l13 143 143-74z" fill="#a2516d" stroke="#a2516d"/><path d="M763-97l156 69 159-9z" fill="#833f5c" stroke="#833f5c"/><path d="M763-97l315 60 60-8z" fill="#763355" stroke="#763355"/><path d="M763-97l375 52 232-3z" fill="#75214b" stroke="#75214b"/><path d="M919-28L776 46l136-1z" fill="#96587d" stroke="#96587d"/><path d="M919-28l-7 73 166-82z" fill="#783767" stroke="#783767"/><path d="M1078-37L912 45l191 35z" fill="#7a4271" stroke="#7a4271"/><path d="M1078-37l25 117 35-125z" fill="#791f5c" stroke="#791f5c"/><path d="M1138-45l-35 125 78-10z" fill="#7b3369" stroke="#7b3369"/><path d="M1138-45l43 115 189-118z" fill="#78094e" stroke="#78094e"/><path d="M1370-48L1181 70l166 17z" fill="#7b1c5b" stroke="#7b1c5b"/><path d="M1370-48l-23 135 8 214z" fill="#7f5678" stroke="#7f5678"/><path d="M1370-48l-15 349-15 519z" fill="#6178b2" stroke="#6178b2"/><path d="M-84 20l-39 301 42-162z" fill="#dc6b5c" stroke="#dc6b5c"/><path d="M-84 20l3 139L15 50z" fill="#dd3a3c" stroke="#dd3a3c"/><path d="M15 50l-96 109 163 31z" fill="#e56560" stroke="#e56560"/><path d="M15 50l67 140 80-167z" fill="#ea615c" stroke="#ea615c"/><path d="M162 23L82 190l142 60z" fill="#f29e87" stroke="#f29e87"/><path d="M162 23l62 227L355 16z" fill="#f89d82" stroke="#f89d82"/><path d="M355 16L224 250l120-17z" fill="#fac9ad" stroke="#fac9ad"/><path d="M355 16l-11 217 95-64z" fill="#fbcfb4" stroke="#fbcfb4"/><path d="M355 16l84 153 58-150z" fill="#f7a7a1" stroke="#f7a7a1"/><path d="M497 19l-58 150 164-8z" fill="#f4d0c1" stroke="#f4d0c1"/><path d="M497 19l106 142 25-51z" fill="#e5bbb5" stroke="#e5bbb5"/><path d="M628 110l-25 51 167 82z" fill="#d4d4cf" stroke="#d4d4cf"/><path d="M628 110l142 133 6-197z" fill="#c7c5bd" stroke="#c7c5bd"/><path d="M776 46l-6 197 126-83z" fill="#adb9bb" stroke="#adb9bb"/><path d="M776 46l120 114 16-115z" fill="#9c899a" stroke="#9c899a"/><path d="M912 45l-16 115 207-80z" fill="#7e7f95" stroke="#7e7f95"/><path d="M1103 80l-207 80 182 95z" fill="#8097ad" stroke="#8097ad"/><path d="M1103 80l-25 175 84 6z" fill="#808fb1" stroke="#808fb1"/><path d="M1103 80l59 181 19-191z" fill="#807b96" stroke="#807b96"/><path d="M1181 70l-19 191 169-60z" fill="#80779e" stroke="#80779e"/><path d="M1181 70l150 131 16-114z" fill="#7f5b81" stroke="#7f5b81"/><path d="M1347 87l-16 114 24 100z" fill="#80719a" stroke="#80719a"/><path d="M-81 159l-42 162 155 4z" fill="#dd7f84" stroke="#dd7f84"/><path d="M-81 159L32 325l50-135z" fill="#e67c85" stroke="#e67c85"/><path d="M82 190L32 325l192-75z" fill="#efa6a5" stroke="#efa6a5"/><path d="M224 250L32 325l197 47z" fill="#e2b3b1" stroke="#e2b3b1"/><path d="M224 250l5 122 103 13z" fill="#e2d0c6" stroke="#e2d0c6"/><path d="M224 250l108 135 12-152z" fill="#f1dbd0" stroke="#f1dbd0"/><path d="M344 233l-12 152 176-38z" fill="#e8e8e7" stroke="#e8e8e7"/><path d="M344 233l164 114-69-178z" fill="#fbf0eb" stroke="#fbf0eb"/><path d="M439 169l69 178 95-186z" fill="#f3f0ec" stroke="#f3f0ec"/><path d="M603 161l-95 186 121-40z" fill="#e2f0f6" stroke="#e2f0f6"/><path d="M603 161l26 146 141-64z" fill="#d3e3e8" stroke="#d3e3e8"/><path d="M770 243l-141 64 146 21z" fill="#bddfee" stroke="#bddfee"/><path d="M770 243l5 85 95-24z" fill="#a6d1e6" stroke="#a6d1e6"/><path d="M770 243l100 61 26-144z" fill="#a3c6d9" stroke="#a3c6d9"/><path d="M896 160l-26 144 208-49z" fill="#85b5d1" stroke="#85b5d1"/><path d="M1078 255l-208 49 128 83z" fill="#6fb0d5" stroke="#6fb0d5"/><path d="M1078 255l-80 132 177-16z" fill="#689ccc" stroke="#689ccc"/><path d="M1078 255l97 116-13-110z" fill="#7596c6" stroke="#7596c6"/><path d="M1162 261l13 110 180-70z" fill="#7084be" stroke="#7084be"/><path d="M1162 261l193 40-24-100z" fill="#807eb6" stroke="#807eb6"/><path d="M-123 321l70 476-20-203z" fill="#5e3161" stroke="#5e3161"/><path d="M-123 321l50 273-7-57z" fill="#825270" stroke="#825270"/><path d="M-123 321l43 216 116-51z" fill="#99607a" stroke="#99607a"/><path d="M-123 321L36 486l-4-161z" fill="#bf778c" stroke="#bf778c"/><path d="M32 325l4 161 193-114z" fill="#c396a4" stroke="#c396a4"/><path d="M229 372L36 486l214 13z" fill="#aa99a8" stroke="#aa99a8"/><path d="M229 372l21 127 82-114z" fill="#c2c3c3" stroke="#c2c3c3"/><path d="M332 385l-82 114 122-42z" fill="#b4c0ca" stroke="#b4c0ca"/><path d="M332 385l40 72 136-110z" fill="#cfe2e8" stroke="#cfe2e8"/><path d="M508 347L372 457l92 83z" fill="#b4d6ea" stroke="#b4d6ea"/><path d="M508 347l-44 193 175-40z" fill="#a0d0ec" stroke="#a0d0ec"/><path d="M508 347l131 153-10-193z" fill="#bde6f5" stroke="#bde6f5"/><path d="M629 307l10 193 118-32z" fill="#97d0eb" stroke="#97d0eb"/><path d="M629 307l128 161 18-140z" fill="#a7daef" stroke="#a7daef"/><path d="M775 328l-18 140 100 29z" fill="#74bbe0" stroke="#74bbe0"/><path d="M775 328l82 169 13-193z" fill="#83c5e4" stroke="#83c5e4"/><path d="M870 304l-13 193 141-110z" fill="#65b5db" stroke="#65b5db"/><path d="M998 387L857 497l145-43z" fill="#3e9acf" stroke="#3e9acf"/><path d="M998 387l4 67 173-83z" fill="#5098cc" stroke="#5098cc"/><path d="M1175 371l-173 83 165 25z" fill="#4082c1" stroke="#4082c1"/><path d="M1175 371l-8 108 162 58z" fill="#3164b2" stroke="#3164b2"/><path d="M1175 371l154 166 26-236z" fill="#5171b6" stroke="#5171b6"/><path d="M1355 301l-26 236 11 283z" fill="#013897" stroke="#013897"/><path d="M-80 537l7 57L36 486z" fill="#6a3d6e" stroke="#6a3d6e"/><path d="M36 486L-73 594l178 62z" fill="#673674" stroke="#673674"/><path d="M36 486l69 170 145-157z" fill="#74678f" stroke="#74678f"/><path d="M250 499L105 656l134-45z" fill="#776e96" stroke="#776e96"/><path d="M250 499l-11 112 78-25z" fill="#7a8aaa" stroke="#7a8aaa"/><path d="M250 499l67 87 55-129z" fill="#90a5bd" stroke="#90a5bd"/><path d="M372 457l-55 129 147-46z" fill="#89adcd" stroke="#89adcd"/><path d="M464 540l-147 46 83 146z" fill="#7b8bbf" stroke="#7b8bbf"/><path d="M464 540l-64 192 116-83z" fill="#7c8ecc" stroke="#7c8ecc"/><path d="M464 540l52 109 123-149z" fill="#6fa9da" stroke="#6fa9da"/><path d="M639 500L516 649l134 28z" fill="#6291cf" stroke="#6291cf"/><path d="M639 500l11 177 131-46z" fill="#4f8acc" stroke="#4f8acc"/><path d="M639 500l142 131-24-163z" fill="#52a0d6" stroke="#52a0d6"/><path d="M757 468l24 163 76-134z" fill="#3d94cf" stroke="#3d94cf"/><path d="M857 497l-76 134 153 20z" fill="#2072be" stroke="#2072be"/><path d="M857 497l77 154 68-197z" fill="#157cc1" stroke="#157cc1"/><path d="M1002 454l-68 197h101z" fill="#005eb3" stroke="#005eb3"/><path d="M1002 454l33 197 132-172z" fill="#0e66b6" stroke="#0e66b6"/><path d="M1167 479l-132 172 125-17z" fill="#0046a6" stroke="#0046a6"/><path d="M1167 479l-7 155 169-97z" fill="#0243a3" stroke="#0243a3"/><path d="M1329 537l-169 97 158 37z" fill="#002293" stroke="#002293"/><path d="M1329 537l-11 134 22 149z" fill="#000883" stroke="#000883"/><path d="M-73 594l20 203 158-141z" fill="#65065c" stroke="#65065c"/><path d="M105 656L-53 797l162 3z" fill="#6a135c" stroke="#6a135c"/><path d="M105 656l4 144 138 10z" fill="#733570" stroke="#733570"/><path d="M105 656l142 154-8-199z" fill="#774684" stroke="#774684"/><path d="M239 611l8 199 153-78z" fill="#7b5c96" stroke="#7b5c96"/><path d="M239 611l161 121-83-146z" fill="#7b75a9" stroke="#7b75a9"/><path d="M516 649l-116 83 123 46z" fill="#7c7cc2" stroke="#7c7cc2"/><path d="M516 649l7 129 127-101z" fill="#6a73c1" stroke="#6a73c1"/><path d="M650 677L523 778l151-14z" fill="#5f6db8" stroke="#5f6db8"/><path d="M650 677l24 87 107-133z" fill="#4d67bc" stroke="#4d67bc"/><path d="M781 631L674 764l64 38z" fill="#4561b3" stroke="#4561b3"/><path d="M781 631l-43 171 177-16z" fill="#2e52a9" stroke="#2e52a9"/><path d="M781 631l134 155 19-135z" fill="#1b4aac" stroke="#1b4aac"/><path d="M934 651l-19 135 120-135z" fill="#0238a2" stroke="#0238a2"/><path d="M1035 651L915 786l163-26z" fill="#003098" stroke="#003098"/><path d="M1035 651l43 109 82-126z" fill="#002798" stroke="#002798"/><path d="M1160 634l-82 126 151 37z" fill="#00168a" stroke="#00168a"/><path d="M1160 634l69 163 89-126z" fill="#000888" stroke="#000888"/><path d="M1318 671l-89 126 111 23z" fill="#007" stroke="#007"/><path d="M-53 797l300 13-138-10z" fill="#6e235d" stroke="#6e235d"/><path d="M247 810l1093 10-602-18z" fill="#3959a1" stroke="#3959a1"/><path d="M247 810l491-8-215-24z" fill="#7779b4" stroke="#7779b4"/><path d="M247 810l276-32-123-46z" fill="#7b6da4" stroke="#7b6da4"/><path d="M523 778l215 24-64-38z" fill="#596aaf" stroke="#596aaf"/><path d="M738 802l602 18-425-34z" fill="#00328d" stroke="#00328d"/><path d="M915 786l425 34-111-23z" fill="#00157d" stroke="#00157d"/><path d="M915 786l314 11-151-37z" fill="#002489" stroke="#002489"/></svg>