<svg width="1197" height="651" xmlns="http://www.w3.org/2000/svg"><g><path d="M-81,-50L-123,321L-84,20Z" fill="#da4a3f" stroke="#da4a3f"/><path d="M-81,-50L-84,20L15,50Z" fill="#da051c" stroke="#da051c"/><path d="M-81,-50L15,50L63,-37Z" fill="#dd001e" stroke="#dd001e"/><path d="M-81,-50L63,-37L237,-80Z" fill="#e1191f" stroke="#e1191f"/><path d="M-81,-50L237,-80L454,-107Z" fill="#ec463a" stroke="#ec463a"/><path d="M63,-37L15,50L162,23Z" fill="#e52539" stroke="#e52539"/><path d="M63,-37L162,23L237,-80Z" fill="#ea3535" stroke="#ea3535"/><path d="M237,-80L162,23L355,16Z" fill="#f25551" stroke="#f25551"/><path d="M237,-80L355,16L352,-62Z" fill="#f16054" stroke="#f16054"/><path d="M237,-80L352,-62L454,-107Z" fill="#ef655c" stroke="#ef655c"/><path d="M352,-62L355,16L497,19Z" fill="#f36e78" stroke="#f36e78"/><path d="M352,-62L497,19L454,-107Z" fill="#f17471" stroke="#f17471"/><path d="M454,-107L497,19L626,-37Z" fill="#e8777a" stroke="#e8777a"/><path d="M454,-107L626,-37L763,-97Z" fill="#d36e75" stroke="#d36e75"/><path d="M626,-37L497,19L628,110Z" fill="#e08897" stroke="#e08897"/><path d="M626,-37L628,110L776,46Z" fill="#cd8596" stroke="#cd8596"/><path d="M626,-37L776,46L763,-97Z" fill="#bf6275" stroke="#bf6275"/><path d="M763,-97L776,46L919,-28Z" fill="#a2516d" stroke="#a2516d"/><path d="M763,-97L919,-28L1078,-37Z" fill="#833f5c" stroke="#833f5c"/><path d="M763,-97L1078,-37L1138,-45Z" fill="#763355" stroke="#763355"/><path d="M763,-97L1138,-45L1370,-48Z" fill="#75214b" stroke="#75214b"/><path d="M919,-28L776,46L912,45Z" fill="#96587d" stroke="#96587d"/><path d="M919,-28L912,45L1078,-37Z" fill="#783767" stroke="#783767"/><path d="M1078,-37L912,45L1103,80Z" fill="#7a4271" stroke="#7a4271"/><path d="M1078,-37L1103,80L1138,-45Z" fill="#791f5c" stroke="#791f5c"/><path d="M1138,-45L1103,80L1181,70Z" fill="#7b3369" stroke="#7b3369"/><path d="M1138,-45L1181,70L1370,-48Z" fill="#78094e" stroke="#78094e"/><path d="M1370,-48L1181,70L1347,87Z" fill="#7b1c5b" stroke="#7b1c5b"/><path d="M1370,-48L1347,87L1355,301Z" fill="#7f5678" stroke="#7f5678"/><path d="M1370,-48L1355,301L1340,820Z" fill="#6178b2" stroke="#6178b2"/><path d="M-84,20L-123,321L-81,159Z" fill="#dc6b5c" stroke="#dc6b5c"/><path d="M-84,20L-81,159L15,50Z" fill="#dd3a3c" stroke="#dd3a3c"/><path d="M15,50L-81,159L82,190Z" fill="#e56560" stroke="#e56560"/><path d="M15,50L82,190L162,23Z" fill="#ea615c" stroke="#ea615c"/><path d="M162,23L82,190L224,250Z" fill="#f29e87" stroke="#f29e87"/><path d="M162,23L224,250L355,16Z" fill="#f89d82" stroke="#f89d82"/><path d="M355,16L224,250L344,233Z" fill="#fac9ad" stroke="#fac9ad"/><path d="M355,16L344,233L439,169Z" fill="#fbcfb4" stroke="#fbcfb4"/><path d="M355,16L439,169L497,19Z" fill="#f7a7a1" stroke="#f7a7a1"/><path d="M497,19L439,169L603,161Z" fill="#f4d0c1" stroke="#f4d0c1"/><path d="M497,19L603,161L628,110Z" fill="#e5bbb5" stroke="#e5bbb5"/><path d="M628,110L603,161L770,243Z" fill="#d4d4cf" stroke="#d4d4cf"/><path d="M628,110L770,243L776,46Z" fill="#c7c5bd" stroke="#c7c5bd"/><path d="M776,46L770,243L896,160Z" fill="#adb9bb" stroke="#adb9bb"/><path d="M776,46L896,160L912,45Z" fill="#9c899a" stroke="#9c899a"/><path d="M912,45L896,160L1103,80Z" fill="#7e7f95" stroke="#7e7f95"/><path d="M1103,80L896,160L1078,255Z" fill="#8097ad" stroke="#8097ad"/><path d="M1103,80L1078,255L1162,261Z" fill="#808fb1" stroke="#808fb1"/><path d="M1103,80L1162,261L1181,70Z" fill="#807b96" stroke="#807b96"/><path d="M1181,70L1162,261L1331,201Z" fill="#80779e" stroke="#80779e"/><path d="M1181,70L1331,201L1347,87Z" fill="#7f5b81" stroke="#7f5b81"/><path d="M1347,87L1331,201L1355,301Z" fill="#80719a" stroke="#80719a"/><path d="M-81,159L-123,321L32,325Z" fill="#dd7f84" stroke="#dd7f84"/><path d="M-81,159L32,325L82,190Z" fill="#e67c85" stroke="#e67c85"/><path d="M82,190L32,325L224,250Z" fill="#efa6a5" stroke="#efa6a5"/><path d="M224,250L32,325L229,372Z" fill="#e2b3b1" stroke="#e2b3b1"/><path d="M224,250L229,372L332,385Z" fill="#e2d0c6" stroke="#e2d0c6"/><path d="M224,250L332,385L344,233Z" fill="#f1dbd0" stroke="#f1dbd0"/><path d="M344,233L332,385L508,347Z" fill="#e8e8e7" stroke="#e8e8e7"/><path d="M344,233L508,347L439,169Z" fill="#fbf0eb" stroke="#fbf0eb"/><path d="M439,169L508,347L603,161Z" fill="#f3f0ec" stroke="#f3f0ec"/><path d="M603,161L508,347L629,307Z" fill="#e2f0f6" stroke="#e2f0f6"/><path d="M603,161L629,307L770,243Z" fill="#d3e3e8" stroke="#d3e3e8"/><path d="M770,243L629,307L775,328Z" fill="#bddfee" stroke="#bddfee"/><path d="M770,243L775,328L870,304Z" fill="#a6d1e6" stroke="#a6d1e6"/><path d="M770,243L870,304L896,160Z" fill="#a3c6d9" stroke="#a3c6d9"/><path d="M896,160L870,304L1078,255Z" fill="#85b5d1" stroke="#85b5d1"/><path d="M1078,255L870,304L998,387Z" fill="#6fb0d5" stroke="#6fb0d5"/><path d="M1078,255L998,387L1175,371Z" fill="#689ccc" stroke="#689ccc"/><path d="M1078,255L1175,371L1162,261Z" fill="#7596c6" stroke="#7596c6"/><path d="M1162,261L1175,371L1355,301Z" fill="#7084be" stroke="#7084be"/><path d="M1162,261L1355,301L1331,201Z" fill="#807eb6" stroke="#807eb6"/><path d="M-123,321L-53,797L-73,594Z" fill="#5e3161" stroke="#5e3161"/><path d="M-123,321L-73,594L-80,537Z" fill="#825270" stroke="#825270"/><path d="M-123,321L-80,537L36,486Z" fill="#99607a" stroke="#99607a"/><path d="M-123,321L36,486L32,325Z" fill="#bf778c" stroke="#bf778c"/><path d="M32,325L36,486L229,372Z" fill="#c396a4" stroke="#c396a4"/><path d="M229,372L36,486L250,499Z" fill="#aa99a8" stroke="#aa99a8"/><path d="M229,372L250,499L332,385Z" fill="#c2c3c3" stroke="#c2c3c3"/><path d="M332,385L250,499L372,457Z" fill="#b4c0ca" stroke="#b4c0ca"/><path d="M332,385L372,457L508,347Z" fill="#cfe2e8" stroke="#cfe2e8"/><path d="M508,347L372,457L464,540Z" fill="#b4d6ea" stroke="#b4d6ea"/><path d="M508,347L464,540L639,500Z" fill="#a0d0ec" stroke="#a0d0ec"/><path d="M508,347L639,500L629,307Z" fill="#bde6f5" stroke="#bde6f5"/><path d="M629,307L639,500L757,468Z" fill="#97d0eb" stroke="#97d0eb"/><path d="M629,307L757,468L775,328Z" fill="#a7daef" stroke="#a7daef"/><path d="M775,328L757,468L857,497Z" fill="#74bbe0" stroke="#74bbe0"/><path d="M775,328L857,497L870,304Z" fill="#83c5e4" stroke="#83c5e4"/><path d="M870,304L857,497L998,387Z" fill="#65b5db" stroke="#65b5db"/><path d="M998,387L857,497L1002,454Z" fill="#3e9acf" stroke="#3e9acf"/><path d="M998,387L1002,454L1175,371Z" fill="#5098cc" stroke="#5098cc"/><path d="M1175,371L1002,454L1167,479Z" fill="#4082c1" stroke="#4082c1"/><path d="M1175,371L1167,479L1329,537Z" fill="#3164b2" stroke="#3164b2"/><path d="M1175,371L1329,537L1355,301Z" fill="#5171b6" stroke="#5171b6"/><path d="M1355,301L1329,537L1340,820Z" fill="#013897" stroke="#013897"/><path d="M-80,537L-73,594L36,486Z" fill="#6a3d6e" stroke="#6a3d6e"/><path d="M36,486L-73,594L105,656Z" fill="#673674" stroke="#673674"/><path d="M36,486L105,656L250,499Z" fill="#74678f" stroke="#74678f"/><path d="M250,499L105,656L239,611Z" fill="#776e96" stroke="#776e96"/><path d="M250,499L239,611L317,586Z" fill="#7a8aaa" stroke="#7a8aaa"/><path d="M250,499L317,586L372,457Z" fill="#90a5bd" stroke="#90a5bd"/><path d="M372,457L317,586L464,540Z" fill="#89adcd" stroke="#89adcd"/><path d="M464,540L317,586L400,732Z" fill="#7b8bbf" stroke="#7b8bbf"/><path d="M464,540L400,732L516,649Z" fill="#7c8ecc" stroke="#7c8ecc"/><path d="M464,540L516,649L639,500Z" fill="#6fa9da" stroke="#6fa9da"/><path d="M639,500L516,649L650,677Z" fill="#6291cf" stroke="#6291cf"/><path d="M639,500L650,677L781,631Z" fill="#4f8acc" stroke="#4f8acc"/><path d="M639,500L781,631L757,468Z" fill="#52a0d6" stroke="#52a0d6"/><path d="M757,468L781,631L857,497Z" fill="#3d94cf" stroke="#3d94cf"/><path d="M857,497L781,631L934,651Z" fill="#2072be" stroke="#2072be"/><path d="M857,497L934,651L1002,454Z" fill="#157cc1" stroke="#157cc1"/><path d="M1002,454L934,651L1035,651Z" fill="#005eb3" stroke="#005eb3"/><path d="M1002,454L1035,651L1167,479Z" fill="#0e66b6" stroke="#0e66b6"/><path d="M1167,479L1035,651L1160,634Z" fill="#0046a6" stroke="#0046a6"/><path d="M1167,479L1160,634L1329,537Z" fill="#0243a3" stroke="#0243a3"/><path d="M1329,537L1160,634L1318,671Z" fill="#002293" stroke="#002293"/><path d="M1329,537L1318,671L1340,820Z" fill="#000883" stroke="#000883"/><path d="M-73,594L-53,797L105,656Z" fill="#65065c" stroke="#65065c"/><path d="M105,656L-53,797L109,800Z" fill="#6a135c" stroke="#6a135c"/><path d="M105,656L109,800L247,810Z" fill="#733570" stroke="#733570"/><path d="M105,656L247,810L239,611Z" fill="#774684" stroke="#774684"/><path d="M239,611L247,810L400,732Z" fill="#7b5c96" stroke="#7b5c96"/><path d="M239,611L400,732L317,586Z" fill="#7b75a9" stroke="#7b75a9"/><path d="M516,649L400,732L523,778Z" fill="#7c7cc2" stroke="#7c7cc2"/><path d="M516,649L523,778L650,677Z" fill="#6a73c1" stroke="#6a73c1"/><path d="M650,677L523,778L674,764Z" fill="#5f6db8" stroke="#5f6db8"/><path d="M650,677L674,764L781,631Z" fill="#4d67bc" stroke="#4d67bc"/><path d="M781,631L674,764L738,802Z" fill="#4561b3" stroke="#4561b3"/><path d="M781,631L738,802L915,786Z" fill="#2e52a9" stroke="#2e52a9"/><path d="M781,631L915,786L934,651Z" fill="#1b4aac" stroke="#1b4aac"/><path d="M934,651L915,786L1035,651Z" fill="#0238a2" stroke="#0238a2"/><path d="M1035,651L915,786L1078,760Z" fill="#003098" stroke="#003098"/><path d="M1035,651L1078,760L1160,634Z" fill="#002798" stroke="#002798"/><path d="M1160,634L1078,760L1229,797Z" fill="#00168a" stroke="#00168a"/><path d="M1160,634L1229,797L1318,671Z" fill="#000888" stroke="#000888"/><path d="M1318,671L1229,797L1340,820Z" fill="#000077" stroke="#000077"/><path d="M-53,797L247,810L109,800Z" fill="#6e235d" stroke="#6e235d"/><path d="M247,810L1340,820L738,802Z" fill="#3959a1" stroke="#3959a1"/><path d="M247,810L738,802L523,778Z" fill="#7779b4" stroke="#7779b4"/><path d="M247,810L523,778L400,732Z" fill="#7b6da4" stroke="#7b6da4"/><path d="M523,778L738,802L674,764Z" fill="#596aaf" stroke="#596aaf"/><path d="M738,802L1340,820L915,786Z" fill="#00328d" stroke="#00328d"/><path d="M915,786L1340,820L1229,797Z" fill="#00157d" stroke="#00157d"/><path d="M915,786L1229,797L1078,760Z" fill="#002489" stroke="#002489"/></g></svg>